<svg xmlns="http://www.w3.org/2000/svg" class="d-none">
  <symbol id="cerdito" viewBox="0 0 576 512">
    <path d="M400 96l0 .7c-5.3-.4-10.6-.7-16-.7L256 96c-16.5 0-32.5 2.1-47.8 6c-.1-2-.2-4-.2-6c0-53 43-96 96-96s96 43 96 96zm-16 32c3.5 0 7 .1 10.4 .3c4.2 .3 8.4 .7 12.6 1.3C424.6 109.1 450.8 96 480 96l11.5 0c10.4 0 18 9.8 15.5 19.9l-13.8 55.2c15.8 14.8 28.7 32.8 37.5 52.9l13.3 0c17.7 0 32 14.3 32 32l0 96c0 17.7-14.3 32-32 32l-32 0c-9.1 12.1-19.9 22.9-32 32l0 64c0 17.7-14.3 32-32 32l-32 0c-17.7 0-32-14.3-32-32l0-32-128 0 0 32c0 17.7-14.3 32-32 32l-32 0c-17.7 0-32-14.3-32-32l0-64c-34.9-26.2-58.7-66.3-63.2-112L68 304c-37.6 0-68-30.4-68-68s30.4-68 68-68l4 0c13.3 0 24 10.7 24 24s-10.7 24-24 24l-4 0c-11 0-20 9-20 20s9 20 20 20l31.2 0c12.1-59.8 57.7-107.5 116.3-122.8c12.9-3.4 26.5-5.2 40.5-5.2l128 0zm64 136a24 24 0 1 0 -48 0 24 24 0 1 0 48 0z"/>
  </symbol>
  <symbol id="banco" viewBox="0 0 512 512">
    <path d="M243.4 2.6l-224 96c-14 6-21.8 21-18.7 35.8S16.8 160 32 160l0 8c0 13.3 10.7 24 24 24l400 0c13.3 0 24-10.7 24-24l0-8c15.2 0 28.3-10.7 31.3-25.6s-4.8-29.9-18.7-35.8l-224-96c-8-3.4-17.2-3.4-25.2 0zM128 224l-64 0 0 196.3c-.6 .3-1.2 .7-1.8 1.1l-48 32c-11.7 7.8-17 22.4-12.9 35.9S17.9 512 32 512l448 0c14.1 0 26.5-9.2 30.6-22.7s-1.1-28.1-12.9-35.9l-48-32c-.6-.4-1.2-.7-1.8-1.1L448 224l-64 0 0 192-40 0 0-192-64 0 0 192-48 0 0-192-64 0 0 192-40 0 0-192zM256 64a32 32 0 1 1 0 64 32 32 0 1 1 0-64z"/>
  </symbol>
  <symbol id="corazon" viewBox="0 0 512 512">
    <path d="M47.6 300.4L228.3 469.1c7.5 7 17.4 10.9 27.7 10.9s20.2-3.9 27.7-10.9L464.4 300.4c30.4-28.3 47.6-68 47.6-109.5v-5.8c0-69.9-50.5-129.5-119.4-141C347 36.5 300.6 51.4 268 84L256 96 244 84c-32.6-32.6-79-47.5-124.6-39.9C50.5 55.6 0 115.2 0 185.1v5.8c0 41.5 17.2 81.2 47.6 109.5z"/>
  </symbol>
  <symbol id="plus" viewBox="0 0 448 512">
    <path d="M256 80c0-17.7-14.3-32-32-32s-32 14.3-32 32l0 144L48 224c-17.7 0-32 14.3-32 32s14.3 32 32 32l144 0 0 144c0 17.7 14.3 32 32 32s32-14.3 32-32l0-144 144 0c17.7 0 32-14.3 32-32s-14.3-32-32-32l-144 0 0-144z"/>
  </symbol>
</svg>