<svg xmlns="http://www.w3.org/2000/svg" class="d-none">
  <symbol id="edit" viewBox="0 0 512 512">
    <path d="M471.6 21.7c-21.9-21.9-57.3-21.9-79.2 0L362.3 51.7l97.9 97.9 30.1-30.1c21.9-21.9 21.9-57.3 0-79.2L471.6 21.7zm-299.2 220c-6.1 6.1-10.8 13.6-13.5 21.9l-29.6 88.8c-2.9 8.6-.6 18.1 5.8 24.6s15.9 8.7 24.6 5.8l88.8-29.6c8.2-2.7 15.7-7.4 21.9-13.5L437.7 172.3 339.7 74.3 172.4 241.7zM96 64C43 64 0 107 0 160L0 416c0 53 43 96 96 96l256 0c53 0 96-43 96-96l0-96c0-17.7-14.3-32-32-32s-32 14.3-32 32l0 96c0 17.7-14.3 32-32 32L96 448c-17.7 0-32-14.3-32-32l0-256c0-17.7 14.3-32 32-32l96 0c17.7 0 32-14.3 32-32s-14.3-32-32-32L96 64z"></path>
  </symbol>
  <symbol id="trash" viewBox="0 0 448 512">
    <path d="M135.2 17.7C140.6 6.8 151.7 0 163.8 0L284.2 0c12.1 0 23.2 6.8 28.6 17.7L320 32l96 0c17.7 0 32 14.3 32 32s-14.3 32-32 32L32 96C14.3 96 0 81.7 0 64S14.3 32 32 32l96 0 7.2-14.3zM32 128l384 0 0 320c0 35.3-28.7 64-64 64L96 512c-35.3 0-64-28.7-64-64l0-320zm96 64c-8.8 0-16 7.2-16 16l0 224c0 8.8 7.2 16 16 16s16-7.2 16-16l0-224c0-8.8-7.2-16-16-16zm96 0c-8.8 0-16 7.2-16 16l0 224c0 8.8 7.2 16 16 16s16-7.2 16-16l0-224c0-8.8-7.2-16-16-16zm96 0c-8.8 0-16 7.2-16 16l0 224c0 8.8 7.2 16 16 16s16-7.2 16-16l0-224c0-8.8-7.2-16-16-16z"></path>  
  </symbol>
  <symbol id="arrow-up" viewBox="0 0 576 512">
    <path d="M384 160c-17.7 0-32-14.3-32-32s14.3-32 32-32l160 0c17.7 0 32 14.3 32 32l0 160c0 17.7-14.3 32-32 32s-32-14.3-32-32l0-82.7L342.6 374.6c-12.5 12.5-32.8 12.5-45.3 0L192 269.3 54.6 406.6c-12.5 12.5-32.8 12.5-45.3 0s-12.5-32.8 0-45.3l160-160c12.5-12.5 32.8-12.5 45.3 0L320 306.7 466.7 160 384 160z"></path>
  </symbol>
  <symbol id="arrow-down" viewBox="0 0 576 512">
    <path d="M384 352c-17.7 0-32 14.3-32 32s14.3 32 32 32l160 0c17.7 0 32-14.3 32-32l0-160c0-17.7-14.3-32-32-32s-32 14.3-32 32l0 82.7L342.6 137.4c-12.5-12.5-32.8-12.5-45.3 0L192 242.7 54.6 105.4c-12.5-12.5-32.8-12.5-45.3 0s-12.5 32.8 0 45.3l160 160c12.5 12.5 32.8 12.5 45.3 0L320 205.3 466.7 352 384 352z"></path>
  </symbol>
  <symbol id="equal" viewBox="0 0 448 512">
    <path d="M48 128c-17.7 0-32 14.3-32 32s14.3 32 32 32l352 0c17.7 0 32-14.3 32-32s-14.3-32-32-32L48 128zm0 192c-17.7 0-32 14.3-32 32s14.3 32 32 32l352 0c17.7 0 32-14.3 32-32s-14.3-32-32-32L48 320z"></path>
  </symbol>
  <symbol id="search" viewBox="0 0 512 512">
    <path fill="white" d="M416 208c0 45.9-14.9 88.3-40 122.7L502.6 457.4c12.5 12.5 12.5 32.8 0 45.3s-32.8 12.5-45.3 0L330.7 376c-34.4 25.2-76.8 40-122.7 40C93.1 416 0 322.9 0 208S93.1 0 208 0S416 93.1 416 208zM208 352a144 144 0 1 0 0-288 144 144 0 1 0 0 288z"></path>
  </symbol>
  <symbol id="no-image" viewBox="0 0 24 24">
    <path d="M3.71,2.29A1,1,0,0,0,2.29,3.71L5.09,6.5H5a3,3,0,0,0-3,3v8a3,3,0,0,0,3,3H19.08l1.21,1.22a1,1,0,0,0,1.42,0,1,1,0,0,0,0-1.42Zm6.49,9.33,2.68,2.68a2,2,0,0,1-.88.2,2,2,0,0,1-2-2A2,2,0,0,1,10.2,11.62ZM5,18.5a1,1,0,0,1-1-1v-8a1,1,0,0,1,1-1H7.07l1.7,1.69A3.92,3.92,0,0,0,8,12.5a4,4,0,0,0,4,4,3.92,3.92,0,0,0,2.32-.77l2.77,2.77Zm14-12H17.72l-.31-1a3,3,0,0,0-2.85-2h-4.4a1,1,0,0,0,0,2h4.4a1,1,0,0,1,.95.68l.54,1.63A1,1,0,0,0,17,8.5h2a1,1,0,0,1,1,1v5.84a1,1,0,1,0,2,0V9.5A3,3,0,0,0,19,6.5Z"></path>
  </symbol>
  <symbol id="arrow-left" viewBox="0 0 448 512">
    <path d="M9.4 233.4c-12.5 12.5-12.5 32.8 0 45.3l160 160c12.5 12.5 32.8 12.5 45.3 0s12.5-32.8 0-45.3L109.2 288 416 288c17.7 0 32-14.3 32-32s-14.3-32-32-32l-306.7 0L214.6 118.6c12.5-12.5 12.5-32.8 0-45.3s-32.8-12.5-45.3 0l-160 160z"></path>
  </symbol>
</svg>